<svg width="943" height="553" viewBox="0 0 943 553" fill="none" xmlns="http://www.w3.org/2000/svg">
<path fill-rule="evenodd" clip-rule="evenodd" d="M794.277 187.221L778.02 285.903H579.495L536.878 545.531H391.212L396.389 513.736L393.329 515.977L388.5 519.391L383.322 522.687L378.021 525.871L372.49 528.814L366.717 531.756L360.709 534.581L354.352 537.175L347.877 539.528L341.048 541.758L333.984 543.757L326.684 545.644L319.03 547.3L311.022 548.715L308.433 549.069V359.135L311.258 358.54L317.149 356.895L322.68 355.008L327.863 352.768L332.805 350.414L337.398 347.601L341.874 344.647L345.996 341.351L349.999 337.824L353.885 334.056L357.418 330.058L360.95 325.695L364.128 321.224L367.307 316.401L370.249 311.448L373.074 306.152L375.663 300.739L378.134 295.084L380.487 289.317L382.609 283.421L384.732 277.3L386.613 271.292L388.382 265.053L390.033 258.69L391.448 252.216L392.863 245.853L394.16 239.379L395.339 232.904L396.518 226.429L402.88 187.221H308.439V0H942.28L911.428 187.221H794.277V187.221ZM308.439 549.069L302.789 550.012L294.192 550.955L285.129 551.77L275.824 552.242L266.171 552.595L256.164 552.708L251.098 552.595L246.039 552.483L241.092 552.242L236.15 552.011L231.32 551.657L226.497 551.186L221.785 550.602L216.961 550.017L212.368 549.304L207.662 548.479L203.068 547.664L198.598 546.721L194.005 545.778L189.653 544.711L185.177 543.537L180.825 542.24L176.585 540.954L172.319 539.646L168.079 538.118L163.957 536.703L159.835 535.047L155.714 533.402L151.71 531.745L147.706 529.977L143.82 528.09L140.052 526.203L136.166 524.204L132.398 522.205L128.748 520.088L125.098 517.965L121.448 515.725L117.798 513.377L110.38 508.194L102.961 502.77L95.8971 497.003L89.0686 490.994L82.4759 484.755L76.119 478.398L70.1159 471.688L64.2254 464.854L58.6886 457.8L53.393 450.607L48.4458 443.194L43.6166 435.541L39.1411 427.887L34.9014 419.991L30.8975 411.984L27.1295 403.858L23.5973 395.62L20.301 387.253L17.3584 378.774L14.5337 370.176L12.0574 361.579L9.82237 352.869L7.82312 344.063L6.05972 335.23L4.52678 326.407L3.22969 317.456L2.16842 308.505L1.343 299.554L0.753406 290.491L0.399653 281.427L0.281738 272.599L0.517572 263.53L0.753406 256.938L1.10716 250.463L1.69675 243.87L2.28634 237.396L3.11177 230.921L3.93719 224.446L4.99846 217.971L6.17763 211.614L7.35681 205.252L8.76647 198.895L10.2994 192.533L11.9503 186.289L13.8369 180.05L15.7236 173.811L17.7229 167.685L19.9579 161.558L22.193 155.555L24.6639 149.547L27.1349 143.662L29.8416 137.771L32.6663 132.004L35.6089 126.231L38.6694 120.582L41.9657 115.045L45.2621 109.626L48.7942 104.207L52.3264 98.9117L56.0944 93.7287L59.9804 88.551L63.9842 83.6038L68.106 78.6566L72.3457 73.8327L76.2316 69.7109L80.2354 65.7071L84.3572 61.7032L88.5969 57.8173L92.8366 54.0493L97.1942 50.3938L101.782 46.8616L106.376 43.4474L111.082 40.0331L115.911 36.8547L120.864 33.7942L125.811 30.7337L130.994 27.909L136.177 25.2023L141.472 22.4955L146.891 20.0246L152.423 17.6716L157.959 15.4365L163.732 13.4319L169.499 11.4273L175.39 9.65854L181.393 8.01305L187.401 6.48012L193.64 5.18302L199.885 4.00384L206.247 2.94259L212.604 2.00461L219.078 1.2971L225.671 0.707507L232.382 0.353743L239.092 0.117914L245.803 0H308.444V187.221H300.083L294.31 187.339L289.009 187.811L283.949 188.401L279.12 189.344L274.527 190.523L270.056 191.82L265.935 193.353L261.931 195.117L258.045 197.003L254.395 199.126L250.981 201.366L247.566 203.837L244.506 206.426L241.445 209.251L238.621 212.193L235.796 215.254L233.325 218.55L230.849 221.846L228.614 225.379L226.491 229.029L224.487 232.797L222.718 236.683L221.067 240.687L219.652 244.69L218.242 248.93L217.181 253.159L216.12 257.399L215.412 261.751L214.705 266.109L214.351 270.461L213.997 274.942L213.879 279.171L213.997 283.298L214.115 287.425L214.469 291.423L215.058 295.551L215.648 299.436L216.474 303.446L217.417 307.203L218.596 310.971L219.775 314.626L221.185 318.282L222.6 321.696L224.251 325.11L226.019 328.294L227.906 331.467L229.905 334.421L232.028 337.245L234.268 339.947L236.621 342.541L239.092 344.894L241.681 347.134L244.388 349.251L247.213 351.138L250.155 353.025L253.216 354.67L256.512 356.085L259.808 357.382L263.341 358.556L267.109 359.5L270.994 360.325L274.998 360.909L279.356 361.263L283.831 361.375L291.367 361.263L298.432 360.679L305.025 359.735L308.439 359.151V549.069V549.069Z" fill="black"/>
<path fill-rule="evenodd" clip-rule="evenodd" d="M601.277 189.339L589.03 263.638H759.062L771.31 189.339H601.277V189.339ZM915.909 22.3723L892.47 164.849H299.842C227.542 164.849 191.866 222.902 191.63 279.063C191.277 331.928 222.359 383.276 283.59 383.748C379.436 384.332 406.756 301.205 418.531 230.085L425.242 189.339H572.779L517.915 523.271H417.47L429.01 452.976C389.797 492.077 360.242 530.695 256.153 530.341C205.995 530.229 164.075 516.92 130.163 494.778C60.6933 449.208 25.1357 366.317 22.7773 282.478V264.822V264.233C24.7819 198.885 46.913 134.705 88.8328 88.9047C125.923 48.5179 178.322 22.3776 245.91 22.3776H915.909V22.3723Z" fill="#E6E6E7"/>
</svg>
